<?xml version="1.0" encoding="UTF-8"?><svg id="b" xmlns="http://www.w3.org/2000/svg" viewBox="0 0 1018.0904 173.2828"><g id="c"><path d="M23.5725.3074l-.2576.5924-6.874.1635,39.4021,25.8131.1815.5886c.5629.0711.5339.2859-.0403.395.0674.5287-.3653.5909-.8316.5577l-.1421.4279c-7.4705,5.3161-15.035,10.6235-22.6933,15.9224l-1.0884.3634.0533,1.2286-19.5272,39.8841c-.2293.3624-.7651.7423-1.1781.6754-.6034-.0977-2.0564-10.3505-1.8527-9.8877.0434.0986-.1248.2224-.2484.2672l-2.52-15.4178L1.4585,32.3925C.9999,29.3857.1787,24.1138.0041,21.3499l.4923-.4682c9.8343,7.2382,19.6216,14.6414,29.3618,22.2096C24.4781,29.2152,19.1332,15.3317,13.8235,1.4407l.2939-1.0158c.0943-.1194.3079-.4496.6084-.4235,3.0523.2656,6.0163-.2194,8.8467.3059Z" fill="#ed8704"/><path d="M23.5725.3074l51.1861.1914,24.0147.1782c1.2811.1119,1.6418.4712,1.0822,1.0777-14.2648,8.6833-28.5303,17.2751-42.7963,25.7752-.414.1785-.7589.1568-1.0346-.065-.3695.0519-.6682-.1713-1.0553-.4262l-16.3584-10.7722L14.3774.4181l9.1951-.1107Z" fill="#e2271d"/><path d="M66.9438,65.8088c.5776.1576,1.2392.5972.8936,1.2241-.2741.3375-.5141.6739-.4322,1.1177,1.5328,11.6177,3.2399,23.1956,5.1214,34.7338.3323.2543.1291.4674-.6094.6395l-16.1762,2.6228c-.5707.0925-.6874.4503-.9731.5693-1.7132,3.6422-3.6715,7.2302-5.8751,10.7641-.5237,1.1955-1.3064,2.016-2.348,2.4613-.4687.2685-1.086.268-1.8519-.0014-2.6991.0584-5.3835-.0523-8.0531-.3322l-.0866-.7312c.1579-.3937.3694-.7179.7854-.6773,2.3623.1744,4.7165.2398,7.0626.1963-10.8412-9.6027-21.8909-19.1273-33.1491-28.5738l-.5909-.9964c-.7002.2774-.7389-.4791-.3291-.9844l-.1179-.6121c9.6796-5.5496,19.441-11.1717,29.2842-16.8662l1.8145-.4486c.2427-.4911.4833-.4835.5397.0634.7665.1694.7006.3957-.0511.5506l-.1708.6821c-1.0612.5816-2.0751,1.2486-3.0419,2.0012-7.6646,4.2858-15.2252,8.5658-22.6819,12.8399-1.1928.6131-2.1881,1.4187-2.9857,2.4169l41.3761,17.128c3.9044-13.1671,7.7858-26.3881,11.6442-39.6629l.3591-.188c.1952-.0292.4652.1412.6434.0634Z" fill="#15659d"/><path d="M127.7114.9005l-.2005.5898-26.2434.0792-4.2803,30.8766-.7568,1.1904c.9543.8202-1.3831,1.7046-1.9741.984l-1.6775-.3391-.3055.5437c-12.0236-2.2805-24.0456-4.383-36.066-6.3075l-.223-.6577.0403-.395,6.2443-3.7607,8.5161-5.0876,26.1442-15.6814c1.0621-.6371,2.0193-.9924,2.772-1.8779-.4436-.1341-.7675-.1061-.9279-.3804l28.5918-.0005c.2346,0,.3941.0755.3464.224Z" fill="#8b4f94"/><path d="M.0041,21.3499c-.0146-.2309-.0087-.8386.3364-1.3374C3.8084,15.0006,10.3662,5.1737,14.1174.4249c.3769,1.2167.7791,2.3334,1.3097,3.7032l14.3767,37.1184c.4592,1.1857.8135,2.1255,1.0891,3.3161-2.4907-1.5183-4.4864-3.3555-6.8545-5.1684L2.0057,22.527c-.6966-.5333-1.307-1.0233-2.0016-1.1772Z" fill="#dd2622"/><path d="M20.3105,117.3285l.5467.3021-8.8178,51.246c-.1353,1.1532-.5125,2.1497-1.1315,2.9897.4941.599.4321.7642-.3361.8924-.5431-3.1275-.6932-6.225-1.0359-9.6153l-5.3451-52.8726.4182-.4612c5.0132,2.1365,9.998,4.3228,14.9544,6.5588l.7471.9601Z" fill="#5dab44"/><path d="M66.3003,65.7454c.2191.8787-.1111,1.6482-.3949,2.6102l-7.7661,26.3319-3.2774,10.6191c-.047.1523-.147.2676-.238.3584-.0726.0724-.2195-.0346-.3269-.0688l-.6247.0044c-4.1011-11.5095-8.2031-23.0212-12.3059-34.5352l.4348-.5374c-.0578-.1622.0699-.3827.0511-.5506l.0144-.403c4.0793-1.0294,8.2382-1.9033,12.4769-2.6215l.4583.5113,11.4985-1.719Z" fill="#3791cc"/><path d="M41.2902,69.3164c.8086.0213.7807.3276.0225.5977-3.2405,2.0977-6.6013,3.9109-10.0996,5.9221l-20.8812,12.0049c-.1634.1733-.262.0792-.2958-.2822l-1.5602-10.2599c.0669-.116-.0584-.3305.2555-.6068.7867,3.2651.7337,6.4747,2.0007,9.876,1.1966-1.2672,1.372-2.5319,2.0503-3.9116l18.4466-37.5251.6228-.0387c3.4106,7.9234,6.6519,15.8853,9.7238,23.8856l-.2853.3381Z" fill="#e16c0c"/><path d="M127.7114.9005c.5128-.0015.999-.0275,1.5091.0665l.2895.7069c-10.6679,10.832-21.5641,21.5093-32.6886,32.0319-.1996.166-.3653.1574-.5911-.0693l1.4342-10.5761,3.0523-22.0784,26.9945-.0815Z" fill="#5d307f"/><path d="M31.8088,163.5768l-20.4923,9.6063c-.3082.1445-.5553.1378-.6885-.0582-.0649-.0955-.0352-.2455-.0562-.3661.0588-.3154.1528-.626.3361-.8924,3.4432-5.0911,6.8672-10.2453,10.2717-15.4627l22.2323-33.0245c.654-1.3399,1.5407-2.1812,2.6604-2.5238.1847.0479.3331.1046.354.1917.1575.656-.9104,4-1.2202,4.9134-1.125,3.3165-2.2788,6.6895-3.6724,9.8398-1.5199,4.6876-3.0635,9.4052-4.6308,14.153-1.6851,4.0082-3.0625,8.1351-4.1323,12.3806l-.9618,1.2428Z" fill="#0d763e"/><path d="M92.5788,34.2814c.9767.1143,3.1298.3849,1.4836,1.1661.0615.222.0909.5829-.0465.6216-12.0967,3.4056-24.6655,6.614-36.8578,9.3877l-.8092.0286c-.961.5577-1.455.4327-1.4818-.375l.4519-14.6663c.0477-1.0485.2695-1.9099.6653-2.5842.8313.2425,1.6865.1248,2.7097.3094l33.8848,6.1121Z" fill="#18713e"/><path d="M108.8834,71.7623c.2531.1947.2759.5329.0685,1.0146-5.3303,4.6622-10.7633,9.193-16.299,13.5925l-.6556-.2643-.2851.2677c-15.0081-12.4367-22.5122-18.655-22.5122-18.655-1.031-.6829-1.2922-1.2306-.7835-1.643l40.4669,5.6875Z" fill="#5fae41"/><path d="M47.4436,125.3382l.6122.1209,4.2528,31.1601c.5444.3417.5351.8147.4769,1.4248-.1276.3643-.3265,1.0837-.664,1.3746l-7.3152,1.5569c-.6472-.5355-.0437-.653-.0117-.2923.042.4737-8.1979-.1016-9.3357-1.2115-.7624-.7438-1.0447-1.5287-1.0165-2.5689.0538-1.9881,1.6369-5.7676,2.946-7.2952.3649-2.9211,1.2395-5.7689,2.624-8.5433,1.4744-4.8616,3.1149-9.6642,4.9213-14.4078.56-.9739,1.56-2.5439,2.5098-1.3184Z" fill="#5d2d7e"/><path d="M109.0026,101.4353l-37.0855,2.0886c.215-.2018.3882-.4481.6094-.6395l-.1389-.6595c6.1364-5.1851,12.2419-10.3866,18.3164-15.6043l.6885.0396c.0424-.5764.2811-.5321.3693.0626l.5893-.2747,16.505,13.8255c.2243.335.3339.8058.1465,1.1616Z" fill="#5b2d77"/><path d="M96.8204,35.1135l.487-.4298c5.8558,2.5724,11.7138,5.1458,17.5737,7.72l.0859.6815-.1286.4605c-8.025.435-16.0367.7813-24.0352,1.0389l-21.8114.7505c-4.069.14-7.9523-.0155-11.8338.1218.5222-.4885,1.3047-.6392,2.1718-.8674l34.7325-9.1419c.1194-.5369.5911-.7547,1.415-.6533.4165-.216.7338-.2614.9521-.1362.4825-.1836.6129-.0317.391.4555Z" fill="#c99d05"/><path d="M55.9842,27.8599l-.5347,17.3122c-.0121.3921.6785.3212.8993.3134-.8893.2403-.8738.8303-.903,1.7482l-.644,20.2307-12.9495,2.5132c-.1696.0329-.3676-.0787-.5397-.0634-.0505-.1806.0496-.4246-.0225-.5977,4.371-13.3362,8.7733-26.689,13.2067-40.0583l.6557-.8404c.108-.3797.4286-.6753.8316-.5577Z" fill="#d4a907"/><path d="M109.0026,101.4353c-.2374-.637-.8407-.9187-1.4252-1.4103l-15.8155-13.3021c-.5916-.516-.5498-.6263.2354-.6178l1.9514-1.3435,2.5445-2.1122c.6797-.5642,1.1759-1.1228,1.8617-1.6967l9.7779-8.1828c.3805-.3185.7534-.5896.7506-1.0075.5742.0807.4583.4833.4582,1.1049l-.0021,27.9853c0,.4205.0243.5626-.3368.5829Z" fill="#8b5297"/><path d="M54.7678,106.716l1.1397,23.0611,1.0043,17.6273c-.2366-.2089-.4643-.425-.6609-.6664-.1917-.2353-.3749-.4668-.475-.728-3.0919-8.0695-6.1232-16.1833-8.3755-24.2441l.085-.5912c-.6963-.2443-.5228.9525-.3066,1.511.642.1615.6817.6453.0085.822l.271.9318c.8518.0381.7862.7144-.0147.8985-2.1052-.1985-3.2031,4.5623-3.6184,6.4314-.3434,1.5454-1.5989,2.8239-2.0713,4.3453-.3105,1-.4946,1.9531-.9367,2.9202-.3718.8133.0477,1.7672-.3702,2.5122-.6304,1.1238-3.2679,6.8666-2.3393,8.3071-2.1489,1.1193-4.2781,7.6787-2.2979,9.1468,1.6263,1.2057,6.8333,1.1025,9.2991,1.3724-.0756.3134-.2755.4013-.3027.6019-.6802.1448-1.3575.3512-2.0581.3356l-.885.242c-.1916.0047-.3989.0536-.59.0402l-.885.2544c-.1917.0026-.3988.0556-.59.0418l-.885.2521c-.1917.0028-.3989.0542-.59.0402l-.885.2575c-.1912.0024-.3995.0599-.59.0441l-.885.2521c-.191.0033-.3998.0595-.59.0433l-.885.2529-2.6791.5452c1.3874-5.1122,3.4731-10.7429,5.2951-15.9813l4.618-13.2773c1.0872-3.1258,2.2201-6.0923,3.1342-9.2549l1.2162-4.208c-.6354-.5215-.3448-1.0502.4723-.914,1.8128-2.5221,3.3388-5.2385,4.8966-8.0612l2.1983-3.9833c.3405-.617.5638-.946,1.1282-1.181Z" fill="#582b72"/><path d="M10.3318,87.8411c.0259.3524.1201.6948.3291.9844l.7649,1.0114,9.3248,26.9594-.44.5323-6.2774-2.7988-9.8423-4.2589,5.8452-22.712c.1894-.0974.2844.1271.2958.2822Z" fill="#41b1dd"/><path d="M56.9119,147.4045c-.9755,3.6317-2.8813,7.0839-4.1263,10.6395l-1.0077-1.2054-4.3342-31.5004.0147-.8985-.271-.9318c-.0109-.271-.0248-.5513-.0085-.822-.2114-.5462-.4161-1.8048.3066-1.511l3.9101,11.068c1.8922,5.356,3.6676,10.0708,5.5163,15.1617Z" fill="#884b99"/><path d="M90.8033,44.5846l6.0562-.504,10.1744-.1696c1.1886-.0198,2.331-.3693,3.5635-.2339,1.6138.1772,3.0217-.0822,4.3698-.592.1285-.3794.5064-.6702,1.1334-.8724l2.3794-6.2009,10.2105-31.1004c-1.8807,2.1476-3.9503,4.1323-6.2087,5.9541l-2.4222,2.7158-14.2249,13.4302c-2.6802,2.9702-5.4671,5.6712-8.3605,8.1029l-.6535-.0011c-.2066-.0908-.4629-.1524-.391-.4555l-.148-.2812c11.2822-11.0414,22.618-22.0876,34.0075-33.1387l.5693.0768c.0647.4129-.0389.8708-.2203,1.4157l-10.3775,31.1554c-1.1414,3.4266-2.0784,6.7005-3.5348,9.9742l-8.6687.2626-10.5379.3191c-2.3157.0701-4.5281.0319-6.7157.1425Z" fill="#e9c346"/><path d="M130.8582,1.315l-20.7835,20.028-13.6453,13.3151c-.6744.3877-1.6162.5919-2.3671.7895.0546-.0661.3756-.5349.0985-.629l-1.5821-.5371c1.2796-.2937,2.9684.72,3.4289.0245.114-.1722.1045-.512.2227-.6694.9543-.7578,2.2092-1.3941,3.0553-2.4017,1.2936-1.5405,2.829-2.6546,4.1899-4.0986l3.5649-3.7826c1.2226-1.2973,2.4839-2.4221,3.7589-3.6544l4.4763-4.3263c1.8487-1.7868,3.3012-3.7858,5.2717-5.359l2.1327-1.7026,4.2978-4.518c.8858-.9312,1.7408-1.7812,2.2424-2.8264.5232.0964,1.5185-.4122,1.6377.348Z" fill="#693c43"/><path d="M68.4165,66.0748c-.0622.9081,4.5479,4.2721,5.5085,5.1048l2.9998,2.6007,5.6759,4.6592,9.3965,7.6655c-.0604.2124-.142.4178-.2354.6178l-.3693-.0626-.5315.325c-7.5986-6.2943-15.2848-12.6872-23.0587-19.1786l.0349-.7738c-.3559-.3607-.7609-.734-.8936-1.2241.542-.2366,1.0131.2014,1.4727.266Z" fill="#3fa685"/><path d="M42.7482,161.3111c-.1701.3115-.5798.2346-.885.242.0559-.446.583-.2488.885-.242Z" fill="#5d2d7e"/><path d="M41.2732,161.5933c-.1726.3106-.5764.2503-.885.2544.066-.4226.5775-.2759.885-.2544Z" fill="#5d2d7e"/><path d="M39.7981,161.8895c-.171.3119-.5771.2476-.885.2521.0664-.422.5781-.2744.885-.2521Z" fill="#5d2d7e"/><path d="M38.3231,162.1818c-.1738.3092-.5757.2537-.885.2575.0633-.4249.5766-.28.885-.2575Z" fill="#5d2d7e"/><path d="M36.848,162.4834c-.1741.3079-.5771.2468-.885.2521.0578-.4299.5779-.2776.885-.2521Z" fill="#5d2d7e"/><path d="M35.3729,162.7788c-.1477.387-.6105.197-.885.2529.055-.4324.5777-.279.885-.2529Z" fill="#5d2d7e"/><path d="M55.1526,28.4177c.1547.1115.1014.4262.0144.6907l-5.7975,17.6395-7.2651,21.6311c-.1751.5213-.2965.9358-.8143.9374l-10.0614-24.1851c6.7417-5.4163,14.1732-10.0368,21.3084-15.2.898-.6498,1.757-1.1473,2.6154-1.5136Z" fill="#f4d403"/><path d="M36.553,118.8766c.52.5126,1.347.0632,2.0759.2178,3.7378.7928,6.3203-.3963,7.9158.847-.1974.2746-.2288.6335-.4723.914-1.796,2.0688-3.1781,4.4198-4.7969,6.8148l-12.1189,17.929-7.4853,11.1303-9.2338,14.0028c-.3965.6013-.9748.9806-1.5295,1.134-.2587-.9802.3245-1.7789.5154-2.8886l8.8872-51.6493.3774-.4921c5.1295.6614,10.2841,1.1308,15.4639,1.4082l.4011.632Z" fill="#1b934a"/><path d="M54.297,105.5963c-.1032.0671-.177.3299-.3234.3353-.1857.0068-.4935.0372-.8203-.0985l-40.2194-16.6976c-2.7352-1.1355,5.0258-4.856,5.9562-5.3945l8.7446-5.062c3.3344-1.9302,6.3862-3.9714,9.9065-5.568,1.5269-.6925,2.6627-2.1166,4.2599-2.583l12.4958,35.0682Z" fill="#1976b4"/><path d="M67.8373,67.0329c.7339.7438,1.6989,1.2894,2.5548,2.0715,3.7002,3.3811,7.5145,6.3587,11.378,9.5665l9.6224,7.9893c-.7493,1.2236-2.2318,1.8585-3.2716,2.9418-.795.8283-1.6236,1.4658-2.4999,2.2013l-7.3652,6.182c-.7764.6517-1.5052,1.2438-2.256,1.8934l-3.4733,3.0056c-.2122.0233-.4303.0944-.8138-.073l-4.895-34.6168c-.0692-.4892.1024-.9498.3271-1.1855.1399-.1468.4863-.0342.6925.0237Z" fill="#0695d2"/><path d="M36.553,118.8766c-2.3721-.2666-14.8373-.9216-16.2425-1.5481l-9.2323-26.6673c-.2428-.7012-.423-1.2374-.4173-1.8358,2.1439,1.1586,3.8502,3.0207,5.7907,4.6368,1.808,1.5057,3.5114,2.9867,5.293,4.5007l5.8953,5.0099,8.8494,7.6566,9.0186,7.8781c-.8068.7744-1.7926.3655-2.629.489-1.9847.2929-3.7732-.512-6.3259-.1199Z" fill="#0594d2"/><path d="M114.9671,43.0852l-18.1467-7.9717c.3024-.7202.9155-1.3516,1.7069-1.7213,1.2901-.6026,1.9101-1.7665,2.8641-2.7422,2.1466-2.1955,4.2705-4.333,6.4962-6.4493l3.7619-3.577c1.8142-1.725,3.6164-3.2559,5.3596-5.0293,1.2921-1.3145,2.7253-2.2881,3.8431-3.7944,1.2284-1.6553,2.9626-2.7572,4.4772-4.0648.8002-.6908,2.6275-3.7076,3.8161-3.5842.5147,1.367-.6155,2.3333-.8722,3.4859-.7276,3.266-2.0464,6.1498-3.0626,9.2769l-3.5084,10.7955c-1.0771,3.3141-1.8933,6.5552-3.1457,9.7962l-1.8501,4.7876c-.4243,1.098-1.1483.5687-1.7394.7922Z" fill="#f5cb08"/><path d="M47.4854,121.1748c-.5456.2599-.2765,1.0101-.3066,1.511-.5318-.5727-.2923-1.4769-.2532-2.3925.5573.157.4456.5582.5598.8815Z" fill="#5d2d7e"/><path d="M47.4583,124.4396c-.3701-.0987-.259-.632-.271-.9318.3808.0955.2759.6336.271.9318Z" fill="#5d2d7e"/><path d="M171.481,99.1302v15.0596h-16.5288v-55.0967h42.0566v15.1514h-25.5278v10.7441h23.6914v14.1416h-23.6914Z"/><path d="M202.7925,114.1897v-55.0967h16.5288v55.0967h-16.5288Z"/><path d="M224.921,87.3763c0-18.917,9.2749-29.6602,27.5483-29.6602,15.4268,0,22.5894,6.0605,24.7017,17.998l-15.519,3.2139c-1.1938-4.3164-3.0303-6.8877-9.2744-6.8877-7.9893,0-10.8354,5.3262-10.8354,15.3359,0,9.1826,2.8462,14.5088,11.1108,14.5088,8.1729,0,10.1011-3.8574,10.1011-7.5303h-10.6519v-11.2949h26.0791v31.1299h-14.9683v-11.7539h-1.2856c-2.479,7.3457-7.3462,12.7637-16.5288,12.7637-11.2944,0-20.4775-9.2744-20.4775-27.8232Z"/><path d="M300.8594,114.1897h-15.1514v-55.0967h26.4463l4.9585,18.3652c.9185,3.3975,2.3877,9.918,3.7646,16.6211h1.1938c1.2856-6.7031,2.8467-13.5908,3.7651-17.2637l4.6831-17.7227h24.4263v55.0967h-16.5293v-20.2021c0-6.9785.3677-14.7842.6431-21.5791h-1.1938c-1.6528,7.4375-3.6729,15.8857-6.3359,24.6094l-4.4077,14.5088h-14.876l-4.2241-14.9678c-2.5713-9.1826-4.4995-16.8965-6.1523-24.1504h-1.1938c.1836,6.7949.1836,14.6006.1836,21.5791v20.2021Z"/><path d="M395.6226,104.18h-18.457l-2.7549,10.0098h-16.9883l17.8145-55.0967h22.957l17.8145,55.0967h-17.7227l-2.6631-10.0098ZM380.4712,92.3343h11.9375l-1.8364-6.7949c-1.1021-4.1318-2.2041-8.2646-3.1221-12.3047h-1.8369c-1.0098,4.04-2.1118,8.1729-3.2139,12.3047l-1.9282,6.7949Z"/><path d="M432.7159,86.4573c0-18.5488,11.0195-28.7412,27.9155-28.7412,14.7842,0,23.6914,7.5293,25.1606,21.8545l-15.7939,2.9385c-1.1021-6.9785-3.6733-10.4688-9.9175-10.4688-7.9893,0-10.9277,6.6123-10.9277,14.417,0,9.3672,3.0308,15.0596,10.8359,15.0596,6.6113,0,8.8154-3.5811,10.2847-10.6514l15.6108,2.5713c-1.5615,14.3252-10.8359,22.1299-25.7119,22.1299-17.1719,0-27.4565-10.6514-27.4565-29.1094Z"/><path d="M489.921,86.4573c0-18.1816,11.0195-28.7412,28.1909-28.7412,17.4473,0,28.1914,10.5596,28.1914,28.7412s-10.1929,29.1094-28.1914,29.1094-28.1909-10.9268-28.1909-29.1094ZM529.8658,86.3655c0-8.8154-3.2139-14.3252-11.7539-14.3252s-11.7539,5.6016-11.7539,14.3252c0,9.5508,3.2144,15.1514,11.6621,15.1514,8.6318,0,11.8457-5.5088,11.8457-15.1514Z"/><path d="M575.2261,96.2835c-2.1118-4.8672-5.6934-14.6924-8.1724-22.3145l-1.0103.0918c.5508,8.54,1.1021,20.2021,1.1021,26.1709v13.958h-15.1514v-55.0967h23.1401l6.6118,14.6924c2.8462,6.3359,6.0601,15.8857,7.9888,22.8652l1.1025-.1836c-.6436-7.9893-1.1025-17.1719-1.1025-22.8652v-14.5088h15.1514v55.0967h-21.7627l-7.8975-17.9062Z"/><path d="M610.3931,98.5784l15.7021-3.3975c1.1934,5.418,5.5098,7.3467,10.4688,7.3467,4.4072,0,6.8867-1.0107,6.8867-3.4893,0-2.7549-1.9287-4.4082-11.8457-5.9688-15.335-2.2959-20.0186-8.4482-20.0186-18.0908,0-11.1104,7.7139-17.2627,23.7832-17.2627,15.7939,0,22.2227,6.7949,23.5078,15.9775l-16.4365,3.1221c-.9189-4.3154-2.6631-6.5195-7.9893-6.5195-4.4082,0-6.5195,1.2852-6.5195,3.8564,0,2.2041.8262,3.9482,10.835,5.6016,17.9062,3.0303,21.3047,10.0088,21.3047,18.2734,0,11.1113-7.2549,17.5391-24.2432,17.5391-19.0078,0-24.4258-8.2646-25.4355-16.9883Z"/><path d="M663.7447,86.4573c0-18.1816,11.0186-28.7412,28.1904-28.7412,17.4473,0,28.1914,10.5596,28.1914,28.7412s-10.1934,29.1094-28.1914,29.1094-28.1904-10.9268-28.1904-29.1094ZM703.689,86.3655c0-8.8154-3.2139-14.3252-11.7539-14.3252s-11.7539,5.6016-11.7539,14.3252c0,9.5508,3.2139,15.1514,11.6621,15.1514,8.6318,0,11.8457-5.5088,11.8457-15.1514Z"/><path d="M742.3453,99.4974h22.2217v14.6924h-38.751v-55.0967h16.5293v40.4043Z"/><path d="M770.0748,59.0931h43.8936v14.2334h-27.3643v7.3457h25.5283v11.6621h-25.5283v7.6221h27.3643v14.2334h-43.8936v-55.0967Z"/><path d="M852.1636,114.1897h-15.1514v-55.0967h26.4463l4.959,18.3652c.918,3.3975,2.3877,9.918,3.7646,16.6211h1.1943c1.2852-6.7031,2.8467-13.5908,3.7646-17.2637l4.6836-17.7227h24.4258v55.0967h-16.5293v-20.2021c0-6.9785.3672-14.7842.6426-21.5791h-1.1934c-1.6533,7.4375-3.6729,15.8857-6.3359,24.6094l-4.4082,14.5088h-14.876l-4.2236-14.9678c-2.5713-9.1826-4.5-16.8965-6.1523-24.1504h-1.1943c.1836,6.7949.1836,14.6006.1836,21.5791v20.2021Z"/><path d="M911.942,86.4573c0-18.5488,11.0186-28.7412,27.915-28.7412,14.7842,0,23.6914,7.5293,25.1611,21.8545l-15.7949,2.9385c-1.1016-6.9785-3.6729-10.4688-9.917-10.4688-7.9893,0-10.9277,6.6123-10.9277,14.417,0,9.3672,3.0303,15.0596,10.8359,15.0596,6.6113,0,8.8154-3.5811,10.2842-10.6514l15.6113,2.5713c-1.5615,14.3252-10.8359,22.1299-25.7119,22.1299-17.1719,0-27.4561-10.6514-27.4561-29.1094Z"/><path d="M987.5123,100.5071v13.6826h-16.5293v-55.0967h24.0586c15.7031,0,23.0488,7.2539,23.0488,20.8447,0,11.1113-7.9883,20.5693-22.4053,20.5693h-8.1729ZM987.5123,72.9593v14.1416h6.3359c5.7852,0,7.8975-2.2959,7.8975-7.0713,0-4.6826-2.1123-7.0703-8.0811-7.0703h-6.1523Z"/></g></svg>