<?xml version="1.0" encoding="UTF-8"?><svg id="b" xmlns="http://www.w3.org/2000/svg" viewBox="0 0 168.1761 222.6663"><g id="c"><path d="M30.2904.395l-.331.7612-8.8331.2101,50.6313,33.1695.2332.7563c.7233.0914.686.3674-.0517.5075.0866.6794-.4694.7593-1.0686.7167l-.1826.5498c-9.5996,6.8311-19.3198,13.6511-29.1606,20.46l-1.3986.467.0685,1.5788-25.0922,51.2506c-.2947.4657-.9831.9538-1.5139.8678-.7753-.1256-2.6425-13.3002-2.3806-12.7056.0558.1266-.1603.2858-.3192.3434l-3.2382-19.8116L1.8742,41.6239C1.2849,37.7603.2297,30.986.0053,27.4343l.6326-.6016c12.637,9.301,25.2135,18.814,37.7296,28.5391C31.4541,37.5412,24.5859,19.701,17.763,1.8513l.3777-1.3053c.1212-.1534.3956-.5778.7817-.5442,3.9221.3412,7.7309-.2819,11.3679.3931Z" fill="#ed8704"/><path d="M30.2904.395l65.7735.246,30.8585.229c1.6462.1438,2.1097.6055,1.3906,1.3848-18.3301,11.158-36.6611,22.1983-54.9927,33.1208-.532.2293-.9751.2015-1.3295-.0835-.4749.0667-.8587-.2201-1.356-.5476l-21.0204-13.8422L18.4747.5373l11.8156-.1423Z" fill="#e2271d"/><path d="M86.022,84.5635c.7423.2025,1.5923.7674,1.1482,1.573-.3522.4337-.6607.866-.5554,1.4363,1.9696,14.9286,4.1633,29.8061,6.5809,44.6325.427.3267.166.6006-.783.8217l-20.7863,3.3703c-.7333.1189-.8833.5787-1.2505.7315-2.2014,4.6802-4.7179,9.2908-7.5494,13.8317-.6729,1.5362-1.6787,2.5905-3.0172,3.1628-.6022.345-1.3955.3444-2.3797-.0018-3.4683.0751-6.9177-.0672-10.3482-.4269l-.1113-.9396c.2029-.5059.4746-.9225,1.0092-.8704,3.0355.2241,6.0607.3082,9.0753.2523-13.9308-12.3393-28.1296-24.5783-42.5962-36.717l-.7593-1.2803c-.8998.3564-.9495-.6157-.4229-1.2649l-.1515-.7865c12.4382-7.1312,24.9815-14.3555,37.6299-21.6729l2.3317-.5764c.3119-.631.621-.6213.6935.0815.985.2176.9002.5085-.0657.7075l-.2195.8765c-1.3636.7473-2.6665,1.6045-3.9088,2.5715-9.8489,5.5072-19.5642,11.007-29.146,16.4992-1.5328.7878-2.8117,1.823-3.8366,3.1057l53.1678,22.0093c5.0171-16.9196,10.0047-33.9084,14.9627-50.9664l.4615-.2416c.2508-.0375.5977.1815.8268.0815Z" fill="#15659d"/><path d="M164.1077,1.1571l-.2576.7579-33.7225.1018-5.5001,39.676-.9725,1.5296c1.2262,1.0539-1.7773,2.1904-2.5367,1.2645l-2.1556-.4358-.3926.6986c-15.4502-2.9304-30.8983-5.6321-46.3444-8.105l-.2865-.8451.0517-.5075,8.0239-4.8324,10.9431-6.5375L124.5528,3.7719c1.3648-.8186,2.5947-1.2752,3.562-2.4131-.57-.1723-.9862-.1363-1.1923-.4889l36.7401-.0006c.3015,0,.5064.097.4451.2878Z" fill="#8b4f94"/><path d="M.0053,27.4343c-.0187-.2967-.0112-1.0775.4323-1.7185C4.8938,19.2756,13.3205,6.6481,18.1407.546c.4843,1.5635,1.0012,2.9985,1.6829,4.7586l18.4739,47.6967c.5901,1.5236,1.0454,2.7312,1.3995,4.2612-3.2005-1.951-5.765-4.3118-8.808-6.6414L2.5773,28.947c-.8951-.6853-1.6795-1.3149-2.572-1.5126Z" fill="#dd2622"/><path d="M26.0988,150.7658l.7025.3882-11.3308,65.8505c-.1739,1.4818-.6585,2.7624-1.4539,3.8417.635.7697.5553.982-.4318,1.1467-.6979-4.0187-.8908-7.999-1.3312-12.3556l-6.8684-67.9407.5374-.5927c6.442,2.7454,12.8474,5.5548,19.2162,8.428l.9601,1.2338Z" fill="#5dab44"/><path d="M85.1951,84.482c.2815,1.1291-.1428,2.1179-.5074,3.3541l-9.9794,33.8362-4.2114,13.6454c-.0604.1957-.1889.3438-.3058.4606-.0933.0931-.2821-.0445-.4201-.0884l-.8027.0057c-5.2699-14.7895-10.5409-29.582-15.8129-44.3773l.5587-.6906c-.0743-.2084.0898-.4917.0657-.7075l.0185-.5178c5.2418-1.3228,10.586-2.4457,16.0326-3.3686l.5889.657,14.7754-2.2089Z" fill="#3791cc"/><path d="M53.0574,89.0707c1.039.0274,1.0032.4209.0289.7681-4.1641,2.6955-8.4826,5.0254-12.9779,7.6098l-26.8321,15.4261c-.2099.2227-.3366.1018-.3801-.3627l-2.0049-13.1838c.086-.1491-.0751-.4247.3283-.7798,1.0109,4.1956.9428,8.3199,2.5708,12.6905,1.5377-1.6284,1.763-3.2535,2.6346-5.0264l23.7036-48.2193.8003-.0497c4.3826,10.1815,8.5476,20.4124,12.495,30.6927l-.3666.4345Z" fill="#e16c0c"/><path d="M164.1077,1.1571c.659-.002,1.2838-.0353,1.9392.0855l.3721.9084c-13.7081,13.919-27.7096,27.6392-42.0045,41.1606-.2565.2133-.4695.2023-.7595-.089l1.843-13.5902,3.9222-28.3705,34.6875-.1047Z" fill="#5d307f"/><path d="M40.8739,210.1942l-26.3324,12.3439c-.396.1856-.7135.177-.8847-.0748-.0834-.1227-.0453-.3155-.0722-.4705.0756-.4053.1963-.8044.4318-1.1467,4.4245-6.5419,8.8242-13.1651,13.199-19.8694l28.5683-42.436c.8403-1.7218,1.9798-2.8028,3.4185-3.243.2374.0616.428.1344.4549.2464.2024.8429-1.1698,5.14-1.5679,6.3136-1.4456,4.2617-2.9282,8.596-4.719,12.6441-1.953,6.0235-3.9365,12.0856-5.9505,18.1865-2.1653,5.1505-3.9353,10.4535-5.31,15.9089l-1.2359,1.597Z" fill="#0d763e"/><path d="M118.9626,44.0512c1.2551.1469,4.0218.4946,1.9064,1.4984.079.2853.1168.749-.0597.7987-15.5441,4.3762-31.6949,8.4989-47.3618,12.0631l-1.0398.0368c-1.2349.7167-1.8696.556-1.9042-.4819l.5806-18.8461c.0613-1.3474.3463-2.4542.8549-3.3206,1.0681.3117,2.1671.1604,3.482.3975l43.5416,7.854Z" fill="#18713e"/><path d="M139.9138,92.2137c.3252.2502.3546.6847.088,1.3038-6.8494,5.9908-13.8307,11.8129-20.944,17.4662l-.8425-.3396-.3663.344c-19.2852-15.981-28.9279-23.9714-28.9279-23.9714-1.3248-.8776-1.6604-1.5813-1.0068-2.1112l51.9994,7.3083Z" fill="#5fae41"/><path d="M60.9645,161.058l.7867.1554,5.4648,40.0404c.6996.439.6877,1.0469.6129,1.8308-.1639.4681-.4196,1.3925-.8532,1.7663l-9.4,2.0006c-.8316-.6881-.0561-.8392-.015-.3757.054.6087-10.5343-.1305-11.9962-1.5568-.9797-.9558-1.3424-1.9644-1.3062-3.301.0691-2.5547,2.1034-7.4113,3.7856-9.3742.4689-3.7536,1.5928-7.4129,3.3718-10.978,1.8946-6.2471,4.0026-12.4184,6.3238-18.5139.7196-1.2514,2.0045-3.2688,3.2251-1.6941Z" fill="#5d2d7e"/><path d="M140.0671,130.3432l-47.6544,2.6839c.2762-.2593.4988-.5758.783-.8217l-.1784-.8475c7.8852-6.6628,15.7306-13.3466,23.5364-20.0513l.8847.0509c.0545-.7406.3613-.6837.4746.0805l.7572-.353,21.2087,17.7657c.2882.4305.429,1.0354.1882,1.4926Z" fill="#5b2d77"/><path d="M124.4131,45.1204l.6258-.5523c7.5247,3.3056,15.052,6.6123,22.582,9.9202l.1104.8757-.1653.5918c-10.312.5589-20.607,1.0039-30.8849,1.3349l-28.0274.9644c-5.2286.1799-10.2186-.0199-15.2063.1565.671-.6277,1.6765-.8213,2.7908-1.1146l44.6308-11.7472c.1535-.6899.7596-.9698,1.8182-.8395.5352-.2776.943-.3359,1.2234-.175.6201-.2359.7875-.0408.5025.5853Z" fill="#c99d05"/><path d="M71.9391,35.7997l-.687,22.2459c-.0156.5038.8718.4127,1.1556.4027-1.1427.3088-1.1228,1.0669-1.1604,2.2464l-.8276,25.9962-16.64,3.2294c-.2179.0423-.4723-.1011-.6935-.0815-.0648-.232.0637-.5456-.0289-.7681,5.6167-17.1369,11.2735-34.295,16.9704-51.4745l.8426-1.0799c.1388-.4879.5507-.8678,1.0686-.7167Z" fill="#d4a907"/><path d="M140.0671,130.3432c-.305-.8185-1.0803-1.1806-1.8314-1.8123l-20.3227-17.093c-.7602-.663-.7066-.8048.3025-.7939l2.5076-1.7264,3.2697-2.7141c.8734-.725,1.511-1.4428,2.3923-2.1803l12.5644-10.5148c.489-.4092.9681-.7577.9645-1.2946.7378.1037.5889.621.5888,1.4198l-.0028,35.9607c0,.5403.0313.7229-.4328.749Z" fill="#8b5297"/><path d="M70.376,137.1288l1.4645,29.6332,1.2905,22.6509c-.304-.2684-.5966-.5461-.8492-.8563-.2463-.3024-.4817-.5999-.6103-.9355-3.973-10.3693-7.8683-20.7953-10.7625-31.1533l.1092-.7597c-.8948-.3139-.6718,1.2239-.394,1.9416.8249.2075.8759.8292.0109,1.0563l.3482,1.1973c1.0946.0489,1.0103.918-.0189,1.1546-2.7052-.255-4.116,5.8625-4.6497,8.2642-.4413,1.9858-2.0545,3.6287-2.6615,5.5837-.399,1.285-.6355,2.5096-1.2036,3.7525-.4777,1.0451.0612,2.2708-.4758,3.2282-.81,1.4441-4.1993,8.8235-3.0059,10.6745-2.7613,1.4383-5.4973,9.867-2.9528,11.7536,2.0897,1.5493,8.7807,1.4167,11.9493,1.7635-.0972.4027-.3541.5156-.3889.7734-.8741.186-1.7444.4513-2.6446.4312l-1.1373.311c-.2462.006-.5126.0688-.7582.0517l-1.1373.3269c-.2463.0033-.5125.0715-.7582.0537l-1.1373.3239c-.2463.0036-.5125.0696-.7582.0517l-1.1373.3309c-.2457.003-.5134.077-.7582.0566l-1.1373.3239c-.2454.0043-.5137.0765-.7582.0556l-1.1373.3249-3.4426.7005c1.7828-6.5691,4.4629-13.8044,6.8041-20.5357l5.9341-17.0612c1.397-4.0166,2.8528-7.8286,4.0274-11.8924l1.5628-5.4072c-.8164-.6702-.4431-1.3495.6069-1.1745,2.3295-3.2408,4.2903-6.7314,6.2921-10.3585l2.8248-5.1185c.4376-.7928.7245-1.2156,1.4498-1.5175Z" fill="#582b72"/><path d="M13.2763,112.8747c.0333.4529.1543.8928.4229,1.2649l.9828,1.2996,11.9822,34.6425-.5654.684-8.0664-3.5965-12.6472-5.4726,7.5111-29.1846c.2433-.1251.3654.1633.3801.3627Z" fill="#41b1dd"/><path d="M73.1311,189.413c-1.2535,4.6667-3.7024,9.1027-5.3022,13.6717l-1.2949-1.549-5.5694-40.4777.0189-1.1546-.3482-1.1973c-.014-.3483-.0318-.7084-.0109-1.0563-.2717-.7019-.5347-2.3192.394-1.9416l5.0244,14.2222c2.4314,6.8825,4.7129,12.9409,7.0884,19.4826Z" fill="#884b99"/><path d="M116.6812,57.2907l7.7821-.6476,13.0739-.2179c1.5273-.0255,2.9953-.4745,4.579-.3006,2.0737.2278,3.8829-.1057,5.6152-.7607.1652-.4875.6507-.8612,1.4564-1.1211l3.0575-7.9681,13.1203-39.9636c-2.4167,2.7596-5.076,5.3099-7.9781,7.651l-3.1125,3.4898-18.2788,17.2577c-3.4441,3.8167-7.0251,7.2874-10.7432,10.4121l-.8398-.0014c-.2655-.1166-.5949-.1959-.5025-.5853l-.1902-.3613c14.4975-14.1881,29.0639-28.3823,43.6992-42.5828l.7316.0987c.0832.5305-.05,1.119-.2831,1.8191l-13.335,40.0343c-1.4666,4.4032-2.6707,8.61-4.5422,12.8168l-11.1392.3375-13.5411.4101c-2.9756.0901-5.8186.041-8.6295.1831Z" fill="#e9c346"/><path d="M168.1513,1.6897l-26.7066,25.7357-17.534,17.1097c-.8666.4981-2.0767.7606-3.0416,1.0145.0701-.0849.4826-.6874.1266-.8082l-2.033-.6902c1.6443-.3774,3.8144.9251,4.4061.0314.1465-.2213.1343-.6579.2862-.8602,1.2262-.9738,2.8387-1.7913,3.9261-3.0862,1.6623-1.9796,3.6353-3.4111,5.384-5.2666l4.5809-4.8606c1.5711-1.667,3.1918-3.1123,4.8302-4.6958l5.752-5.5592c2.3756-2.296,4.242-4.8647,6.7741-6.8862l2.7405-2.1878,5.5226-5.8055c1.1383-1.1966,2.2368-2.2888,2.8815-3.6319.6723.1239,1.9513-.5296,2.1044.4471Z" fill="#693c43"/><path d="M87.9144,84.9053c-.0799,1.1669,5.844,5.4896,7.0783,6.5597l3.8547,3.3419,7.2935,5.987,12.0744,9.8501c-.0776.273-.1824.5369-.3025.7939l-.4746-.0805-.6829.4176c-9.7641-8.0881-19.6408-16.3029-29.6301-24.6443l.0449-.9943c-.4573-.4635-.9778-.9431-1.1482-1.573.6964-.304,1.3018.2588,1.8924.3418Z" fill="#3fa685"/><path d="M54.931,207.2828c-.2185.4003-.745.3015-1.1373.311.0718-.5731.7492-.3197,1.1373-.311Z" fill="#5d2d7e"/><path d="M53.0355,207.6455c-.2218.3991-.7406.3216-1.1373.3269.0848-.5431.742-.3545,1.1373-.3269Z" fill="#5d2d7e"/><path d="M51.1401,208.0261c-.2198.4008-.7415.3182-1.1373.3239.0853-.5423.7428-.3526,1.1373-.3239Z" fill="#5d2d7e"/><path d="M49.2447,208.4017c-.2234.3973-.7397.326-1.1373.3309.0814-.546.7409-.3598,1.1373-.3309Z" fill="#5d2d7e"/><path d="M47.3492,208.7892c-.2238.3956-.7416.3171-1.1373.3239.0742-.5524.7426-.3568,1.1373-.3239Z" fill="#5d2d7e"/><path d="M45.4538,209.1688c-.1898.4973-.7845.2532-1.1373.3249.0706-.5556.7423-.3586,1.1373-.3249Z" fill="#5d2d7e"/><path d="M70.8705,36.5163c.1988.1433.1303.5477.0186.8876l-7.4497,22.6666-9.3356,27.7958c-.225.6698-.381,1.2025-1.0463,1.2045l-12.9287-31.0775c8.663-6.9598,18.2123-12.8972,27.3811-19.5318,1.1539-.835,2.2578-1.4743,3.3607-1.945Z" fill="#f4d403"/><path d="M46.9702,152.755c.6682.6587,1.7308.0812,2.6675.2799,4.803,1.0188,8.1215-.5092,10.1717,1.0884-.2537.3529-.294.8141-.6069,1.1745-2.3078,2.6584-4.0838,5.6793-6.164,8.7569l-15.5726,23.0385-9.6185,14.3023-11.8653,17.9935c-.5095.7726-1.2526,1.2601-1.9654,1.4572-.3324-1.2595.4169-2.2858.6623-3.7118l11.42-66.3687.485-.6323c6.5913.85,13.2149,1.4531,19.8709,1.8095l.5154.8121Z" fill="#1b934a"/><path d="M69.771,135.69c-.1326.0862-.2274.424-.4155.4309-.2387.0088-.6341.0478-1.0541-.1265l-51.6814-21.4562c-3.5146-1.4591,6.4581-6.2398,7.6537-6.9319l11.2367-6.5046c4.2847-2.4802,8.2062-5.1032,12.7298-7.1548,1.962-.8898,3.4216-2.7198,5.4739-3.3191l16.0569,45.0622Z" fill="#1976b4"/><path d="M87.1702,86.1365c.943.9557,2.183,1.6569,3.2829,2.6619,4.7547,4.3446,9.6561,8.1709,14.6206,12.2929l12.3646,10.2662c-.9629,1.5723-2.8678,2.3881-4.204,3.7802-1.0215,1.0643-2.0863,1.8836-3.2124,2.8287l-9.4642,7.9438c-.9977.8374-1.9342,1.5983-2.8989,2.433l-4.4631,3.8622c-.2727.03-.5529.1213-1.0458-.0937l-6.29-44.4821c-.0889-.6286.1316-1.2205.4203-1.5234.1798-.1886.6249-.0439.8899.0304Z" fill="#0695d2"/><path d="M46.9702,152.755c-3.0481-.3426-19.0658-1.1843-20.8714-1.9893l-11.8634-34.2671c-.3119-.901-.5435-1.5901-.5362-2.359,2.7549,1.4888,4.9474,3.8816,7.4409,5.9582,2.3232,1.9348,4.5122,3.8379,6.8015,5.7834l7.5753,6.4377,11.3714,9.8386,11.5887,10.1233c-1.0368.9951-2.3035.4697-3.3782.6283-2.5503.3764-4.8486-.6579-8.1287-.1541Z" fill="#0594d2"/><path d="M147.7314,55.364l-23.3183-10.2436c.3886-.9255,1.1763-1.7368,2.1933-2.2118,1.6578-.7744,2.4545-2.27,3.6803-3.5238,2.7583-2.8212,5.4875-5.5679,8.3475-8.2872l4.834-4.5964c2.3312-2.2166,4.647-4.1838,6.887-6.4626,1.6603-1.6891,3.502-2.9402,4.9384-4.8758,1.5785-2.127,3.8069-3.5429,5.7532-5.2232,1.0283-.8877,3.3763-4.7642,4.9037-4.6056.6614,1.7565-.7908,2.9983-1.1208,4.4794-.9349,4.1968-2.6295,7.9024-3.9354,11.9207l-4.5083,13.872c-1.384,4.2586-2.4329,8.4233-4.0422,12.588l-2.3773,6.152c-.5452,1.4109-1.4756.7308-2.2351,1.018Z" fill="#f5cb08"/><path d="M61.0182,155.7082c-.7011.334-.3554,1.298-.394,1.9416-.6833-.736-.3756-1.8978-.3254-3.0743.7162.2017.5726.7172.7194,1.1327Z" fill="#5d2d7e"/><path d="M60.9834,159.9034c-.4755-.1269-.3328-.8121-.3482-1.1973.4893.1228.3545.8142.3482,1.1973Z" fill="#5d2d7e"/></g></svg>